<?xml version="1.0" standalone="no"?>
<!DOCTYPE svg PUBLIC "-//W3C//DTD SVG 20010904//EN"
 "http://www.w3.org/TR/2001/REC-SVG-20010904/DTD/svg10.dtd">
<svg version="1.0" xmlns="http://www.w3.org/2000/svg"
 width="512.000000pt" height="512.000000pt" viewBox="0 0 512.000000 512.000000"
 preserveAspectRatio="xMidYMid meet">
<metadata>
Created by potrace 1.11, written by Peter Selinger 2001-2013
</metadata>
<g transform="translate(0.000000,512.000000) scale(0.100000,-0.100000)"
fill="#000000" stroke="none">
<path d="M2055 4548 c-60 -139 -121 -280 -136 -313 -15 -33 -84 -193 -154
-355 -70 -162 -133 -308 -141 -325 -7 -16 -108 -250 -224 -520 -116 -269 -217
-504 -225 -521 -8 -16 -43 -97 -78 -180 -35 -82 -75 -171 -87 -199 -40 -87
-57 -128 -100 -230 -23 -55 -52 -122 -65 -150 -12 -27 -32 -75 -45 -105 -12
-30 -31 -73 -41 -95 -10 -22 -40 -92 -67 -155 l-50 -115 477 -3 c262 -1 481 0
488 2 6 3 20 24 31 48 11 24 49 108 85 188 36 80 80 179 99 220 20 41 57 123
83 183 l48 107 645 -2 645 -3 53 -140 c29 -77 71 -192 94 -255 60 -164 81
-222 91 -245 5 -11 15 -38 22 -60 l14 -40 498 -3 c471 -2 497 -1 490 15 -24
64 -138 341 -146 355 -5 10 -9 25 -9 33 0 8 -4 15 -9 15 -5 0 -11 10 -14 22
-5 21 -61 163 -92 233 -13 29 -64 153 -109 265 -13 30 -30 71 -38 90 -13 29
-52 125 -88 215 -5 11 -17 40 -27 65 -11 25 -34 81 -52 125 -18 44 -36 87 -41
96 -4 8 -20 47 -35 85 -15 38 -38 93 -51 122 -13 29 -24 56 -24 61 0 4 -6 21
-14 37 -15 31 -66 153 -166 399 -34 83 -72 174 -86 203 -13 29 -24 55 -24 58
0 3 -13 36 -29 72 -36 86 -141 338 -146 352 -1 3 -6 16 -12 30 -6 14 -32 77
-57 140 -26 63 -53 129 -61 145 -7 17 -37 87 -65 158 l-53 127 -446 0 -446 0
-110 -252z m667 -1148 c11 -30 29 -74 39 -97 11 -23 19 -44 19 -47 0 -6 137
-357 170 -438 11 -26 20 -51 20 -57 0 -7 -125 -10 -371 -11 -351 0 -371 1
-364 17 4 10 11 29 15 43 6 21 258 655 332 838 l22 53 48 -123 c26 -68 58
-148 70 -178z"/>
<path d="M320 640 l0 -320 2240 0 2240 0 0 320 0 320 -2240 0 -2240 0 0 -320z"/>
</g>
</svg>
